<?xml version="1.0" standalone="no"?><!-- Generator: Gravit.io --><svg xmlns="http://www.w3.org/2000/svg" xmlns:xlink="http://www.w3.org/1999/xlink" style="isolation:isolate" viewBox="0 0 40 40" width="40" height="40"><defs><clipPath id="_clipPath_RObeUVxiqMLzDbNP0yT82oHoOvsxupBw"><rect width="40" height="40"/></clipPath></defs><g clip-path="url(#_clipPath_RObeUVxiqMLzDbNP0yT82oHoOvsxupBw)"><clipPath id="_clipPath_zbZZJDFHM4CsQ1YhC3Vtg34mzlEZUQ5P"><rect x="0" y="0" width="40" height="40" transform="matrix(1,0,0,1,0,0)" fill="rgb(255,255,255)"/></clipPath><g clip-path="url(#_clipPath_zbZZJDFHM4CsQ1YhC3Vtg34mzlEZUQ5P)"><g id="Group"><clipPath id="_clipPath_CxLPNFIZrfm7YLp7xvnEodmFjVHDr40p"><rect x="0" y="0" width="40" height="40" transform="matrix(1,0,0,1,0,0)" fill="rgb(255,255,255)"/></clipPath><g clip-path="url(#_clipPath_CxLPNFIZrfm7YLp7xvnEodmFjVHDr40p)"><g id="Group"><g id="Group"><clipPath id="_clipPath_L1ajxpL95MRI3zpIq6Rpz5KviKDKwpoB"><rect x="0" y="0" width="40" height="40" transform="matrix(1,0,0,1,0,0)" fill="rgb(255,255,255)"/></clipPath><g clip-path="url(#_clipPath_L1ajxpL95MRI3zpIq6Rpz5KviKDKwpoB)"><g id="Group"><g id="Group"><g id="Group"><path d=" M 20 0 C 8.954 0 0 8.954 0 20 C 0 31.046 8.954 40 20 40 C 31.046 40 40 31.046 40 20 C 40 8.954 31.046 0 20 0 Z  M 20 4.346 C 28.646 4.346 35.651 11.357 35.651 20 C 35.651 28.643 28.646 35.651 20 35.651 C 11.354 35.651 4.349 28.643 4.349 20 C 4.349 11.357 11.354 4.346 20 4.346 Z  M 14.514 10.178 L 10.178 14.514 L 15.663 20 L 10.178 25.488 L 14.513 29.822 L 20 24.337 L 25.488 29.822 L 29.822 25.488 L 24.337 20 L 29.822 14.514 L 25.488 10.178 L 20 15.663 L 14.514 10.178 Z " fill="rgb(239,71,111)"/></g></g></g></g></g></g></g></g></g></g></svg>