<?xml version="1.0" standalone="no"?><!-- Generator: Gravit.io --><svg xmlns="http://www.w3.org/2000/svg" xmlns:xlink="http://www.w3.org/1999/xlink" style="isolation:isolate" viewBox="0 0 24 24" width="24" height="24"><defs><clipPath id="_clipPath_DwPy5de9WRtyBZgJR1LPm1AbtFafXJwr"><rect width="24" height="24"/></clipPath></defs><g clip-path="url(#_clipPath_DwPy5de9WRtyBZgJR1LPm1AbtFafXJwr)"><path d=" M 12 0 C 5.373 0 0 5.373 0 12 C 0 18.627 5.373 24 12 24 C 18.627 24 24 18.627 24 12 C 24 5.373 18.627 0 12 0 Z  M 12 2.607 C 17.187 2.607 21.391 6.814 21.391 12 C 21.391 17.186 17.187 21.391 12 21.391 C 6.813 21.391 2.609 17.186 2.609 12 C 2.609 6.814 6.813 2.607 12 2.607 Z  M 8.709 6.107 L 6.107 8.709 L 9.398 12 L 6.107 15.292 L 8.708 17.893 L 12 14.602 L 15.292 17.893 L 17.893 15.292 L 14.602 12 L 17.893 8.709 L 15.292 6.107 L 12 9.398 L 8.709 6.107 Z " fill="#EA3C53"/></g></svg>