<?xml version="1.0" standalone="no"?><!-- Generator: Gravit.io --><svg xmlns="http://www.w3.org/2000/svg" xmlns:xlink="http://www.w3.org/1999/xlink" style="isolation:isolate" viewBox="0 0 22 22" width="22" height="22"><defs><clipPath id="_clipPath_cRNmBgbMWZ5Hh2Fh18q6txN0jHMAfwWY"><rect width="22" height="22"/></clipPath></defs><g clip-path="url(#_clipPath_cRNmBgbMWZ5Hh2Fh18q6txN0jHMAfwWY)"><clipPath id="_clipPath_MqcLFDj9T2xDkKtTXAqi1k15wxasQqM5"><rect x="0" y="0" width="22" height="22" transform="matrix(1,0,0,1,0,0)" fill="rgb(255,255,255)"/></clipPath><g clip-path="url(#_clipPath_MqcLFDj9T2xDkKtTXAqi1k15wxasQqM5)"><g id="Group"><path d=" M 11 0 C 4.925 0 0 4.925 0 11 C 0 17.075 4.925 22 11 22 C 17.075 22 22 17.075 22 11 C 22 4.925 17.075 0 11 0 Z  M 11 2.39 C 15.755 2.39 19.608 6.246 19.608 11 C 19.608 15.754 15.755 19.608 11 19.608 C 6.245 19.608 2.392 15.754 2.392 11 C 2.392 6.246 6.245 2.39 11 2.39 Z  M 7.983 5.598 L 5.598 7.983 L 8.615 11 L 5.598 14.018 L 7.982 16.402 L 11 13.385 L 14.018 16.402 L 16.402 14.018 L 13.385 11 L 16.402 7.983 L 14.018 5.598 L 11 8.615 L 7.983 5.598 Z " fill="#EF767A"/></g></g></g></svg>