<?xml version="1.0" standalone="no"?><!-- Generator: Gravit.io --><svg xmlns="http://www.w3.org/2000/svg" xmlns:xlink="http://www.w3.org/1999/xlink" style="isolation:isolate" viewBox="0 0 24 24" width="24" height="24"><defs><clipPath id="_clipPath_XGT1MBrLKDWIgH2UTc5xYlMTUsSpnstg"><rect width="24" height="24"/></clipPath></defs><g clip-path="url(#_clipPath_XGT1MBrLKDWIgH2UTc5xYlMTUsSpnstg)"><path d=" M 0 0 L 0 24 L 24 24 L 24 8.486 L 20.063 12.423 L 20.063 20.063 L 3.938 20.063 L 3.938 3.938 L 11.577 3.938 L 15.514 0 L 0 0 Z  M 21 0 L 19.463 1.537 L 22.463 4.537 L 24 3 L 21 0 Z  M 18.738 2.262 L 9.943 11.057 L 12.943 14.057 L 21.738 5.262 L 18.738 2.262 L 18.738 2.262 Z  M 8.839 12.447 C 8.794 12.447 8.749 12.451 8.704 12.454 L 8.704 15.296 L 11.546 15.296 C 11.546 14.522 11.176 13.735 10.6 13.185 C 10.123 12.73 9.506 12.436 8.839 12.447 L 8.839 12.447 Z " fill="#4EB26F"/></g></svg>