<?xml version="1.0" standalone="no"?><!-- Generator: Gravit.io --><svg xmlns="http://www.w3.org/2000/svg" xmlns:xlink="http://www.w3.org/1999/xlink" style="isolation:isolate" viewBox="0 0 22 22" width="22" height="22"><defs><clipPath id="_clipPath_92ArldeXYtV0NMNr3M4PtW5VLtSghCbx"><rect width="22" height="22"/></clipPath></defs><g clip-path="url(#_clipPath_92ArldeXYtV0NMNr3M4PtW5VLtSghCbx)"><clipPath id="_clipPath_PpmsLcjuBSGm4JPRhXFGXtrftI8yJBYZ"><rect x="0" y="0" width="22" height="22" transform="matrix(1,0,0,1,0,0)" fill="rgb(255,255,255)"/></clipPath><g clip-path="url(#_clipPath_PpmsLcjuBSGm4JPRhXFGXtrftI8yJBYZ)"><g id="Group"><path d=" M 0 0 L 0 22 L 22 22 L 22 7.779 L 18.391 11.388 L 18.391 18.391 L 3.61 18.391 L 3.61 3.61 L 10.612 3.61 L 14.221 0 L 0 0 Z  M 19.25 0 L 17.841 1.409 L 20.591 4.159 L 22 2.75 L 19.25 0 Z  M 17.176 2.074 L 9.114 10.136 L 11.864 12.886 L 19.926 4.823 L 17.176 2.074 L 17.176 2.074 Z  M 8.102 11.41 C 8.061 11.41 8.02 11.413 7.979 11.416 L 7.979 14.021 L 10.584 14.021 C 10.584 13.312 10.245 12.59 9.717 12.086 C 9.279 11.669 8.714 11.4 8.102 11.41 L 8.102 11.41 Z " fill="rgb(78,178,111)"/></g></g></g></svg>