<?xml version="1.0" standalone="no"?><!-- Generator: Gravit.io --><svg xmlns="http://www.w3.org/2000/svg" xmlns:xlink="http://www.w3.org/1999/xlink" style="isolation:isolate" viewBox="0 0 40 40" width="40" height="40"><defs><clipPath id="_clipPath_XzaPMp0N30ILanG83cAvzQFfLtKhHXTN"><rect width="40" height="40"/></clipPath></defs><g clip-path="url(#_clipPath_XzaPMp0N30ILanG83cAvzQFfLtKhHXTN)"><path d=" M 20 0 C 8.954 0 0 8.954 0 20 C 0 31.046 8.954 40 20 40 C 31.046 40 40 31.046 40 20 C 40 8.954 31.046 0 20 0 Z  M 20 7.826 C 21.441 7.826 22.609 8.994 22.609 10.435 C 22.609 11.876 21.441 13.043 20 13.043 C 18.559 13.043 17.391 11.876 17.391 10.435 C 17.391 8.994 18.559 7.826 20 7.826 Z  M 23.478 31.304 L 21.739 31.304 L 18.261 31.304 L 16.522 31.304 L 16.522 29.565 L 18.261 29.565 L 18.261 18.261 L 16.522 18.261 L 16.522 16.522 L 18.261 16.522 L 21.739 16.522 L 21.739 18.261 L 21.739 29.565 L 23.478 29.565 L 23.478 31.304 Z " fill="rgb(255,210,117)"/></g></svg>